<?xml version="1.0" encoding="utf-8"?>
<svg version="1.1" id="Layer_1" xmlns="http://www.w3.org/2000/svg" xmlns:xlink="http://www.w3.org/1999/xlink" x="0px" y="0px"
	 viewBox="0 0 4018.478 4018.478" enable-background="new 0 0 4018.478 4018.478" xml:space="preserve">
<path fill="none" stroke="#fff" stroke-width="1.1489" stroke-miterlimit="10" d="M3779.037,1219.838"/>
<path fill="none" stroke="#fff" stroke-width="1.1489" stroke-miterlimit="10" d="M3682.065,336.413"/>
<path fill="none" stroke="#fff" stroke-width="5" stroke-miterlimit="10" d="M3345.652,672.826"/>
<path fill="none" stroke="#fff" stroke-width="5" stroke-miterlimit="10" d="M3009.239,1009.239"/>
<path fill="none" stroke="#fff" stroke-width="5" stroke-miterlimit="10" d="M2672.826,1345.652"/>
<path fill="none" stroke="#fff" stroke-width="5" stroke-miterlimit="10" d="M2336.413,1682.065"/>
<path fill="none" stroke="#fff" stroke-width="1.1489" stroke-miterlimit="10" d="M-nan-nan"/>
<path fill="none" stroke="#fff" stroke-width="1.1489" stroke-miterlimit="10" d="M4018.478,0"/>
<polygon fill="none" stroke="#fff" stroke-width="5" stroke-miterlimit="10" points="2036.413,9.239 2299.843,310.783 
	2600.145,552.514 2799.894,881.676 3032.381,1189.002 3060.282,1568.075 2930.61,1919.178 2564.949,2033.755 2189.447,2113.854 
	1818.9,2010.313 1445.467,1917.473 1192.927,1633.114 1079.261,1276.249 1300.293,962.947 1542.043,664.391 1884.018,486.467 
	2191.746,254.663 2539.697,131.942 2771.967,418.611 2912.88,777.194 3111.171,1107.785 3160.921,1488.719 3185.287,1871.375 
	2901.65,2115.961 2537.635,2226.089 2170.844,2109.759 1800.908,2004.06 1522.855,1739.282 1271.241,1450.269 1344.518,1083.228 
	1566.685,774.827 1925.625,634.627 2268.093,458.682 2650.484,409.864 3032.772,290.775 3110.137,683.635 3249.341,1043.131 
	3257.747,1428.068 3305.424,1810.468 3140.049,2152.704 2852.198,2391.93 2478.236,2308.325 2112.992,2189.94 1843.861,1914.997 
	1566.88,1647.879 1490.354,1275.347 1570.351,909.461 1918.422,748.65 2277.061,610.969 2662.177,627.87 3044.581,580.985 
	3407.278,648.682 3465.095,1013.078 3407.838,1394.077 3414.267,1779.523 3266.886,2134.294 3096.661,2477.867 2728.731,2547.869 
	2358.42,2461.236 2098.934,2177.096 1831.409,1900.59 1722.997,1532.259 1649.599,1156.16 1896.578,874.931 2243.18,718.93 
	2624.132,776.983 3008.687,795.844 3364.259,944.761 3754.877,1032.772 3625.447,1411.681 3566.253,1792.616 3381.064,2130.185 
	3231.156,2485.188 2916.819,2698.887 2547.92,2762.139 2265.861,2502.755 2008.743,2217.609 1913.139,1844.936 1806.824,1475.114 
	1926.817,1114.229 2179.039,837.36 2560.882,872.128 2940.314,932.212 3265.384,1139.407 3619.998,1290.006 3900.254,1529.981 
	3768.127,1874.466 3528.042,2175.793 3340.886,2512.813 3035.865,2746.364 2716.66,2958.794 2363.023,2835.452 2085.641,2575.272 
	2002.989,2199.457 1909.558,1826.233 1999.836,1453.043 2124.32,1090.631 2478.825,970.569 2856.992,1008.769 3157.879,1249.521 
	3481.484,1458.131 3714.959,1764.884 4009.239,2036.413 3707.695,2299.843 3465.964,2600.145 3136.802,2799.894 2829.475,3032.381 
	2450.403,3060.282 2099.3,2930.61 1984.723,2564.949 1904.624,2189.447 2008.165,1818.9 2101.004,1445.467 2385.363,1192.927 
	2742.229,1079.261 3055.531,1300.293 3354.087,1542.043 3532.01,1884.018 3763.815,2191.746 3886.535,2539.697 3599.867,2771.967 
	3241.284,2912.88 2910.692,3111.171 2529.758,3160.921 2147.103,3185.287 1902.517,2901.65 1792.389,2537.635 1908.718,2170.844 
	2014.418,1800.908 2279.196,1522.855 2568.208,1271.241 2935.249,1344.518 3243.65,1566.685 3383.85,1925.625 3559.795,2268.093 
	3608.614,2650.484 3727.703,3032.772 3334.843,3110.137 2975.347,3249.341 2590.409,3257.747 2208.01,3305.424 1865.774,3140.049 
	1626.548,2852.198 1710.153,2478.236 1828.538,2112.992 2103.48,1843.861 2370.598,1566.88 2743.131,1490.354 3109.017,1570.351 
	3269.828,1918.422 3407.509,2277.061 3390.608,2662.177 3437.492,3044.581 3369.796,3407.278 3005.399,3465.095 2624.4,3407.838 
	2238.955,3414.267 1884.183,3266.886 1540.611,3096.661 1470.609,2728.731 1557.242,2358.42 1841.381,2098.934 2117.888,1831.409 
	2486.219,1722.997 2862.318,1649.599 3143.547,1896.578 3299.548,2243.18 3241.494,2624.132 3222.634,3008.687 3073.717,3364.259 
	2985.705,3754.877 2606.797,3625.447 2225.862,3566.253 1888.293,3381.064 1533.29,3231.156 1319.591,2916.819 1256.339,2547.92 
	1515.723,2265.861 1800.868,2008.743 2173.542,1913.139 2543.363,1806.824 2904.249,1926.817 3181.118,2179.039 3146.35,2560.882 
	3086.266,2940.314 2879.071,3265.384 2728.472,3619.998 2488.496,3900.254 2144.011,3768.127 1842.685,3528.042 1505.665,3340.886 
	1272.114,3035.865 1059.684,2716.66 1183.025,2363.023 1443.206,2085.641 1819.021,2002.989 2192.245,1909.558 2565.435,1999.836 
	2927.846,2124.32 3047.909,2478.825 3009.708,2856.992 2768.957,3157.879 2560.346,3481.484 2253.594,3714.959 1982.065,4009.239 
	1718.635,3707.695 1418.333,3465.964 1218.584,3136.802 986.097,2829.475 958.196,2450.403 1087.868,2099.3 1453.528,1984.723 
	1829.031,1904.624 2199.578,2008.165 2573.01,2101.004 2825.551,2385.363 2939.216,2742.229 2718.184,3055.531 2476.434,3354.087 
	2134.46,3532.01 1826.732,3763.815 1478.78,3886.535 1246.511,3599.867 1105.598,3241.284 907.307,2910.692 857.556,2529.758 
	833.191,2147.103 1116.827,1902.517 1480.843,1792.389 1847.634,1908.718 2217.57,2014.418 2495.622,2279.196 2747.236,2568.208 
	2673.96,2935.249 2451.793,3243.65 2092.853,3383.85 1750.384,3559.795 1367.994,3608.614 985.705,3727.703 908.341,3334.843 
	769.136,2975.347 760.731,2590.409 713.054,2208.01 878.429,1865.774 1166.28,1626.548 1540.242,1710.153 1905.485,1828.538 
	2174.617,2103.48 2451.598,2370.598 2528.124,2743.131 2448.126,3109.017 2100.056,3269.828 1741.417,3407.509 1356.301,3390.608 
	973.897,3437.492 611.2,3369.796 553.383,3005.399 610.64,2624.4 604.211,2238.955 751.592,1884.183 921.817,1540.611 
	1289.746,1470.609 1660.058,1557.242 1919.543,1841.381 2187.068,2117.888 2295.48,2486.219 2368.879,2862.318 2121.9,3143.547 
	1775.297,3299.548 1394.346,3241.494 1009.791,3222.634 654.219,3073.717 263.601,2985.705 393.031,2606.797 452.225,2225.862 
	637.414,1888.293 787.322,1533.29 1101.658,1319.591 1470.558,1256.339 1752.617,1515.723 2009.735,1800.868 2105.339,2173.542 
	2211.653,2543.363 2091.661,2904.249 1839.439,3181.118 1457.595,3146.35 1078.164,3086.266 753.094,2879.071 398.48,2728.472 
	118.223,2488.496 250.35,2144.011 490.436,1842.685 677.591,1505.665 982.612,1272.114 1301.818,1059.684 1655.455,1183.025 
	1932.837,1443.206 2015.489,1819.021 2108.919,2192.245 2018.642,2565.435 1894.157,2927.846 1539.653,3047.909 1161.486,3009.708 
	860.598,2768.957 536.994,2560.346 303.518,2253.594 9.239,1982.065 310.783,1718.635 552.514,1418.333 881.676,1218.584 
	1189.002,986.097 1568.075,958.196 1919.178,1087.868 2033.755,1453.528 2113.854,1829.031 2010.313,2199.578 1917.473,2573.01 
	1633.114,2825.551 1276.249,2939.216 962.947,2718.184 664.391,2476.434 486.467,2134.46 254.663,1826.732 131.942,1478.78 
	418.611,1246.511 777.194,1105.598 1107.785,907.307 1488.719,857.556 1871.375,833.191 2115.961,1116.827 2226.089,1480.843 
	2109.759,1847.634 2004.06,2217.57 1739.282,2495.622 1450.269,2747.236 1083.228,2673.96 774.827,2451.793 634.627,2092.853 
	458.682,1750.384 409.864,1367.994 290.775,985.705 683.635,908.341 1043.131,769.136 1428.068,760.731 1810.468,713.054 
	2152.704,878.429 2391.93,1166.28 2308.325,1540.242 2189.94,1905.485 1914.997,2174.617 1647.879,2451.598 1275.347,2528.124 
	909.461,2448.126 748.65,2100.056 610.969,1741.417 627.87,1356.301 580.985,973.897 648.682,611.2 1013.078,553.383 
	1394.077,610.64 1779.523,604.211 2134.294,751.592 2477.867,921.817 2547.869,1289.746 2461.236,1660.058 2177.096,1919.543 
	1900.59,2187.068 1532.259,2295.48 1156.16,2368.879 874.931,2121.9 718.93,1775.297 776.983,1394.346 795.844,1009.791 
	944.761,654.219 1032.772,263.601 1411.681,393.031 1792.616,452.225 2130.185,637.414 2485.188,787.322 2698.887,1101.658 
	2762.139,1470.558 2502.755,1752.617 2217.609,2009.735 1844.936,2105.339 1475.114,2211.653 1114.229,2091.661 837.36,1839.439 
	872.128,1457.595 932.212,1078.164 1139.407,753.094 1290.006,398.48 1529.981,118.223 1874.466,250.35 2175.793,490.436 
	2512.813,677.591 2746.364,982.612 2958.794,1301.818 2835.452,1655.455 2575.272,1932.837 2199.457,2015.489 1826.233,2108.919 
	1453.043,2018.642 1090.631,1894.157 970.569,1539.653 1008.769,1161.486 1249.521,860.598 1458.131,536.994 1764.884,303.518 "/>
</svg>
